<svg id="Layer_1" enable-background="new 0 0 64 64" height="512" viewBox="0 0 64 64" width="512" xmlns="http://www.w3.org/2000/svg"><path d="m50.3 37.1-11.3-7.1h-14l-11.3 7.1c-2.9 1.8-4.7 5-4.7 8.5v15.4h46v-15.5c0-3.4-1.8-6.6-4.7-8.4z" fill="#8dcae2"/><path d="m26.1 42h17.9v2h-17.9z" fill="#686868" transform="matrix(.447 -.894 .894 .447 -19.113 55.075)"/><path d="m28 34.1h2v17.9h-2z" fill="#3f3f3f" transform="matrix(.894 -.447 .447 .894 -16.169 17.509)"/><path d="m27 49h10v12h-10z" fill="#fcf8f2"/><path d="m30 56h4v2h-4z" fill="#b4b4b5"/><path d="m30 52h4v2h-4z" fill="#b4b4b5"/><path d="m18 49h2v12h-2z" fill="#6b9baa"/><path d="m42.2 6.5-5.8-2.5c-2.8-1.2-6-1.2-8.8 0l-5.8 2.5c-3.5 1.5-5.6 5.1-5.4 8.8l.2 2.5c.3 3.9 2.2 7.5 5.4 9.7l2 1.4h16l2-1.4c3.2-2.3 5.2-5.8 5.4-9.7l.2-2.5c.2-3.8-1.9-7.3-5.4-8.8z" fill="#d15c50"/><path d="m38.4 39 6.8-5.1-6.2-3.9h-7v5l3.8 3.8c.7.7 1.8.8 2.6.2z" fill="#066b93"/><path d="m25.6 39-6.8-5.1 6.2-3.9h7v5l-3.8 3.8c-.7.7-1.8.8-2.6.2z" fill="#066b93"/><path d="m23.2 15.5 10.8-4.5v2c0 1.7 1.3 3 3 3h3c1.1 0 2 .9 2 2v4c0 4.9-2.8 9.4-7.2 11.6l-1.9 1c-.6.3-1.2.3-1.8 0l-1.9-1c-4.4-2.2-7.2-6.7-7.2-11.6v-4.6c0-.9.5-1.6 1.2-1.9z" fill="#f7d2c4"/><path d="m44 49h2v12h-2z" fill="#6b9baa"/><path d="m33.5 45.5h25.1v2h-25.1z" fill="#3f3f3f" transform="matrix(.399 -.917 .917 .399 -14.98 70.159)"/><path d="m56.6 45.9-4.6-10.9h-1l-5 12 2.9 1c1.6.5 2.5 2.3 2 3.9-.4 1.3-1.6 2.1-2.9 2.1h3.3c3.2 0 5.8-2.6 5.8-5.8-.1-.8-.3-1.6-.5-2.3z" fill="#e8821c"/><path d="m30 56h4v2h-4z"/><path d="m30 52h4v2h-4z"/><path d="m58 48.2c0-.9-.2-1.8-.5-2.6l-4.8-11.6h-2.3l-.7 1.5-9.1-5.7 1.9-1.4c3.4-2.4 5.6-6.3 5.8-10.5l.2-2.5c.3-4.2-2.1-8.1-6-9.8l-5.7-2.6c-3.1-1.3-6.5-1.3-9.6 0l-5.8 2.5c-3.9 1.7-6.2 5.6-6 9.8l.2 2.5c.3 4.2 2.4 8 5.8 10.5l1.9 1.4-10.2 6.4c-3.2 2-5.2 5.5-5.2 9.3v16.6h48v-9c1.4-1.3 2.1-3 2.1-4.8zm-2.4-1.9c1 2.5-.1 5.3-2.6 6.3-.5.2-1 .3-1.6.4.1-.2.2-.4.3-.6.8-2.1-.2-4.5-2.3-5.3-.1 0-.1-.1-.2-.1l-2-.7 4.3-10zm-12.2-12.4-5.6 4.2c-.4.3-1 .3-1.3-.1l-2.8-2.8 1.6-.8c1.5-.8 2.9-1.8 4.1-3.1zm-7.4 26.1h-8v-10h8zm-13-38v-4.6c0-.4.2-.8.6-.9l9.4-3.9v.4c0 2.2 1.8 4 4 4h3c.6 0 1 .4 1 1v4c0 4.5-2.6 8.7-6.6 10.7l-1.9 1c-.3.1-.6.1-.9 0l-1.9-1c-4.1-2-6.7-6.2-6.7-10.7zm9 14.4 3.1 3.1c.1.1.3.2.4.3l-3.5 7-3.5-7c.1-.1.3-.2.4-.3zm-14.4-18.6-.2-2.5c-.2-3.4 1.7-6.5 4.8-7.9l5.8-2.5c2.6-1.1 5.5-1.1 8 0l5.8 2.5c3.1 1.4 5 4.5 4.8 7.9l-.2 2.5c-.2 3.1-1.6 6.1-4 8.2.4-1.3.6-2.6.6-4v-4c0-1.7-1.3-3-3-3h-3c-1.1 0-2-.9-2-2v-3.5l-12.2 5.1c-1.1.4-1.8 1.5-1.8 2.7v4.7c0 1.3.2 2.7.6 4-2.4-2.1-3.8-5.1-4-8.2zm11.1 16.7 1.6.8-2.8 2.8c-.4.3-.9.4-1.3.1l-5.6-4.2 4.1-2.5c1.1 1.2 2.5 2.2 4 3zm-18.7 11c0-3.1 1.6-6 4.2-7.6l4.5-2.8 6.2 4.7c.4.3 1 .5 1.5.6l3.8 7.7h-4.2v12h-6v-12.1h-2v12h-8zm44 14.5h-16v-12h-4.4l3.8-7.7c.6 0 1.1-.2 1.5-.6l6.2-4.7 3.7 2.3-8.8 20.2 1.8.8 4.4-10.2 2.2.7c1.1.4 1.7 1.6 1.3 2.7-.3.9-1.1 1.4-2 1.4h-.7v2h4.2c1 0 1.9-.2 2.8-.6z"/></svg>